<svg width="724" height="272" xmlns="http://www.w3.org/2000/svg" xmlns:xlink="http://www.w3.org/1999/xlink" xml:space="preserve" overflow="hidden"><g transform="translate(-278 -224)"><g><g><path d="M2769.7 652.639C2771.27 652.655 2772.58 651.391 2772.58 649.814 2772.58 649.75 2772.58 649.686 2772.58 649.622 2772.58 647.482 2771.29 646.46 2768.63 646.46L2764.35 646.46 2764.35 657.662 2765.97 657.662 2765.97 652.779 2767.94 652.779 2767.99 652.838 2771.05 657.662 2772.79 657.662 2769.49 652.67ZM2767.84 651.517 2765.97 651.517 2765.97 647.729 2768.34 647.729C2769.56 647.729 2770.96 647.929 2770.96 649.529 2770.96 651.369 2769.53 651.517 2767.82 651.517" transform="matrix(1 0 0 1.00078 -1820.65 -225.466)"/><path d="M484.519 219.912 508.277 219.912 508.277 306.45 552.259 306.45 552.259 328.375 484.519 328.375Z" transform="matrix(1 0 0 1.00078 -162.504 85.0128)"/><path d="M766.584 250.543 789.407 250.543 789.407 324.043 766.584 324.043ZM777.996 214.001C785.308 214.003 791.235 219.932 791.233 227.244 791.231 234.556 785.304 240.484 777.991 240.481 770.68 240.479 764.753 234.553 764.753 227.241 764.753 219.929 770.68 214.001 777.993 214.001 777.993 214.001 777.996 214.001 777.996 214.001" transform="matrix(1 0 0 1.00078 -366.326 89.3074)"/><path d="M1205.24 219.878 1228.07 219.878 1228.07 284.699 1253.93 254.784 1281.91 254.784 1251.96 288.812 1281.28 328.348 1252.6 328.348 1228.37 292.017 1228.07 292.017 1228.07 328.344 1205.25 328.344Z" transform="matrix(1 0 0 1.00078 -686.688 85.0295)"/><path d="M901.519 343.15 923.437 343.15 923.437 353.195 923.748 353.195C928.208 345.552 936.517 340.989 945.359 341.322 968.503 341.322 972.764 356.549 972.764 376.332L972.764 416.639 949.94 416.639 949.94 380.904C949.94 372.374 949.783 361.409 938.053 361.409 926.19 361.409 924.359 370.698 924.359 380.283L924.359 416.629 901.536 416.629Z" transform="matrix(1 0 0 1.00078 -465.783 -3.36538)"/><path d="M1521.39 370.21C1521.56 362.655 1515.58 356.385 1508.03 356.207 1507.81 356.202 1507.59 356.202 1507.37 356.207 1499.08 355.691 1491.9 361.922 1491.24 370.21ZM1540.72 402.781C1533.04 412.093 1521.58 417.464 1509.51 417.404 1486.68 417.404 1468.41 402.17 1468.41 378.579 1468.41 354.987 1486.68 339.76 1509.51 339.76 1530.84 339.76 1544.22 354.976 1544.22 378.579L1544.22 385.735 1491.24 385.735C1492.61 394.127 1499.95 400.23 1508.44 400.044 1515.04 400.004 1521.18 396.623 1524.73 391.063Z" transform="matrix(1 0 0 1.00078 -878.095 -2.23047)"/><path d="M1811.23 272.56C1799.81 272.56 1792.97 280.179 1792.97 291.282 1792.97 302.385 1799.81 310.011 1811.23 310.011 1822.64 310.011 1829.5 302.404 1829.5 291.282 1829.5 280.16 1822.65 272.56 1811.23 272.56M1850.51 328.28 1829.5 328.28 1829.5 318.532 1829.19 318.532C1823.85 325.719 1815.46 329.998 1806.5 330.105 1784.57 330.105 1770.13 314.279 1770.13 291.898 1770.13 271.343 1782.91 252.468 1803.92 252.468 1813.37 252.468 1822.19 255.052 1827.37 262.216L1827.67 262.216 1827.67 219.848 1850.51 219.848Z" transform="matrix(1 0 0 1.00078 -1097.53 85.0533)"/><path d="M2279.9 267.601 2257.08 267.601 2257.08 231.858C2257.08 223.335 2256.93 212.363 2245.21 212.363 2233.32 212.363 2231.5 221.65 2231.5 231.238L2231.5 267.598 2208.68 267.598 2208.68 194.098 2230.59 194.098 2230.59 204.142 2230.9 204.142C2235.36 196.504 2243.67 191.941 2252.51 192.269 2275.65 192.269 2279.91 207.485 2279.91 227.279ZM2182.93 184.051C2175.61 184.052 2169.68 178.123 2169.68 170.808 2169.68 163.494 2175.61 157.563 2182.92 157.561 2190.24 157.56 2196.17 163.489 2196.17 170.804 2196.17 178.119 2190.24 184.049 2182.93 184.051M2194.34 267.601 2171.49 267.601 2171.49 194.098 2194.34 194.098ZM2291.28 136.367 2160.02 136.367C2153.82 136.297 2148.73 141.266 2148.66 147.469L2148.66 279.271C2148.73 285.479 2153.82 290.452 2160.02 290.386L2291.28 290.386C2297.5 290.464 2302.61 285.491 2302.69 279.271L2302.69 147.46C2302.6 141.244 2297.5 136.275 2291.28 136.357" transform="matrix(1 0 0 1.00078 -1372.84 145.822)"/><path d="M2749.56 628.163C2743.76 628.218 2739.1 632.965 2739.15 638.766 2739.2 644.567 2743.95 649.225 2749.75 649.17 2755.55 649.113 2760.21 644.365 2760.17 638.564 2760.09 632.844 2755.48 628.218 2749.75 628.163L2749.56 628.163M2749.56 647.967C2744.48 648.053 2740.27 643.997 2740.2 638.911 2740.1 633.826 2744.17 629.635 2749.25 629.549 2754.34 629.464 2758.53 633.519 2758.6 638.605 2758.6 638.657 2758.6 638.707 2758.6 638.759 2758.72 643.735 2754.77 647.855 2749.8 647.962L2749.56 647.962" transform="matrix(1 0 0 1.00078 -1802.17 -212.149)"/></g></g></g></svg>